<?xml version="1.0" encoding="UTF-8"?>
<svg xmlns="http://www.w3.org/2000/svg" xmlns:xlink="http://www.w3.org/1999/xlink" width="225px" height="150px" viewBox="0 0 225 150" version="1.1">
<g id="surface1">
<rect x="0" y="0" width="225" height="150" style="fill:rgb(9.411765%,21.960784%,51.764709%);fill-opacity:1;stroke:none;"/>
<path style=" stroke:none;fill-rule:nonzero;fill:rgb(85.882354%,73.333335%,35.686275%);fill-opacity:1;" d="M 113.714844 47.535156 C 114.65625 48.558594 115.289062 49.582031 115.289062 50.828125 C 114.496094 51.195312 113.40625 51.34375 112.773438 52.003906 C 116.699219 51.488281 117.480469 55.734375 121.875 54.125 C 122.035156 54.710938 122.667969 55.226562 123.449219 55.003906 L 123.917969 53.835938 C 125.640625 53.394531 125.171875 56.03125 127.0625 55.515625 C 128.003906 56.25 127.371094 57.492188 128.003906 58.375 C 128.003906 59.398438 128.472656 60.277344 128.945312 61.15625 C 129.414062 60.644531 129.726562 59.914062 130.828125 60.132812 C 131.609375 60.9375 132.238281 61.671875 132.398438 62.546875 C 132.078125 64.234375 131.609375 65.699219 133.492188 66.574219 L 133.492188 67.089844 C 134.75 67.601562 137.574219 66.574219 137.574219 68.628906 C 137.414062 69.359375 138.355469 68.703125 138.675781 69.140625 C 139.457031 68.847656 140.558594 68.996094 141.5 68.996094 C 142.28125 70.53125 140.558594 71.632812 140.085938 73.023438 C 140.867188 73.753906 140.558594 75.074219 140.398438 75.949219 L 139.925781 76.167969 C 141.179688 76.386719 142.75 76.027344 143.851562 76.6875 L 145.894531 77.414062 C 146.835938 76.90625 147.929688 76.828125 149.1875 76.90625 C 150.128906 77.566406 148.871094 78.664062 149.660156 79.171875 C 150.761719 79.171875 151.703125 79.320312 151.851562 80.199219 L 152.011719 80.492188 C 152.792969 79.171875 154.996094 80.050781 155.9375 79.101562 C 157.507812 79.101562 157.820312 80.710938 158.601562 81.589844 C 158.921875 83.863281 155.9375 84.890625 156.878906 87.15625 C 156.246094 88.253906 154.996094 89.132812 154.054688 90.160156 C 154.367188 90.3125 154.207031 90.671875 154.207031 90.890625 C 153.265625 91.410156 154.054688 92.945312 152.792969 93.089844 C 152.640625 94.042969 150.761719 93.675781 151.382812 94.703125 C 152.640625 96.242188 150.761719 97.191406 150.761719 98.585938 C 149.96875 99.394531 148.398438 97.847656 148.398438 99.394531 C 147.457031 99.613281 146.515625 98.585938 145.894531 99.464844 C 145.574219 100.492188 146.515625 100.851562 146.363281 101.878906 C 147.929688 101.730469 148.398438 103.199219 149.027344 104.078125 L 150.601562 105.542969 C 149.027344 106.710938 146.988281 105.394531 145.105469 106.050781 C 144.632812 105.832031 145.105469 105.253906 144.632812 105.03125 C 144.164062 104.515625 143.222656 104.515625 142.441406 104.375 C 142.589844 105.03125 141.179688 105.253906 141.808594 106.050781 C 141.808594 106.273438 142.121094 106.929688 141.5 106.929688 C 140.238281 107.300781 140.398438 105.910156 139.296875 106.421875 C 137.886719 106.929688 138.984375 108.90625 136.945312 108.6875 C 137.253906 110.453125 133.808594 111.621094 136.164062 113.160156 C 136.472656 113.449219 136.3125 114.039062 136.3125 114.476562 C 134.902344 115.652344 132.398438 115.214844 130.824219 114.773438 C 129.566406 114.476562 130.355469 113.011719 129.882812 112.210938 C 129.414062 111.472656 128.003906 110.960938 128.003906 109.933594 C 127.058594 109.574219 126.269531 109.347656 125.640625 108.617188 C 123.449219 110.59375 120.777344 112.5 117.640625 112.570312 C 116.226562 113.230469 115.4375 115.871094 113.246094 114.773438 C 112.382812 116.09375 109.792969 114.773438 109.636719 116.671875 C 108.613281 117.042969 109.085938 118.289062 108.460938 118.867188 C 108.222656 120.335938 108.460938 121.582031 109.792969 122.460938 C 110.339844 123.558594 108.613281 123.558594 109.320312 124.585938 C 109.480469 124.949219 109.320312 125.464844 109.085938 125.613281 C 108.613281 125.832031 108.460938 126.054688 108.613281 126.492188 C 108.222656 126.492188 108.0625 126.710938 107.753906 127.003906 C 107.359375 127.730469 106.105469 128.101562 105.242188 128.609375 C 104.378906 128.832031 103.75 128.25 103.203125 127.730469 C 103.042969 128.539062 102.335938 128.980469 101.476562 128.980469 C 100.21875 128.980469 100.453125 127.953125 99.511719 127.511719 C 99.902344 126.195312 98.648438 125.613281 99.042969 124.4375 C 100.0625 123.707031 101.785156 123.191406 101.316406 121.652344 C 100.21875 120.414062 100.609375 118.578125 99.511719 117.113281 C 98.808594 116.53125 97.628906 115.652344 98.019531 114.257812 C 99.042969 113.160156 98.019531 111.839844 97.472656 110.671875 C 97.234375 109.714844 96.609375 108.835938 96.609375 107.738281 C 94.882812 106.789062 94.804688 104.296875 92.371094 104.078125 C 90.644531 104.078125 90.332031 102.027344 88.605469 102.171875 C 88.445312 101.878906 88.054688 101.660156 87.738281 101.371094 C 86.488281 102.171875 84.917969 101.152344 83.347656 101.511719 C 82.328125 99.902344 84.210938 97.707031 81.460938 96.75 L 81.460938 95.730469 C 81.777344 95.871094 81.933594 95.582031 82.011719 95.433594 C 82.167969 94.335938 80.050781 94.191406 80.914062 92.945312 C 80.445312 92.578125 79.894531 92.429688 80.210938 91.699219 C 79.03125 89.433594 75.5 89.652344 74.714844 87.378906 C 75.34375 86.867188 75.34375 86.351562 75.578125 85.910156 C 75.027344 85.03125 74.875 84.082031 75.027344 83.132812 C 75.578125 82.984375 75.890625 82.328125 76.207031 81.808594 C 75.5 81.371094 74.636719 80.710938 73.851562 80.929688 C 72.441406 80.710938 71.417969 79.691406 70.164062 79.101562 C 69.847656 78.8125 70.007812 78.292969 70.007812 77.933594 C 71.734375 77.414062 69.773438 75.144531 71.890625 75.441406 C 72.441406 74.78125 73.617188 74.5625 74.480469 74.046875 C 75.34375 73.902344 76.050781 74.195312 76.910156 74.417969 C 77.617188 75.289062 78.875 74.925781 79.578125 75.660156 C 80.285156 75.511719 81.152344 75.144531 82.011719 75.511719 C 82.011719 74.265625 82.640625 73.535156 83.585938 72.65625 C 83.738281 72.144531 84.601562 71.777344 85.308594 71.484375 C 86.644531 71.777344 88.210938 71.777344 89.15625 70.898438 C 89.78125 71.265625 90.332031 70.53125 91.039062 70.53125 C 91.898438 70.382812 92.605469 70.605469 93.234375 70.972656 C 93.3125 69.503906 96.058594 70.753906 96.609375 68.996094 C 97.238281 67.824219 94.882812 67.382812 95.039062 66.355469 C 94.648438 65.183594 95.589844 64.597656 96.058594 63.796875 C 96.609375 63.574219 97.234375 63.28125 97.941406 63.425781 C 99.75 62.84375 98.335938 59.398438 101.242188 60.644531 C 101.242188 61.011719 101.082031 61.449219 101.316406 61.523438 C 102.335938 61.523438 102.492188 60.425781 103.203125 60.058594 C 103.515625 59.035156 102.808594 57.789062 103.75 56.984375 C 104.21875 56.910156 104.613281 56.765625 104.925781 56.394531 C 104.925781 55.589844 104.457031 55.152344 103.75 54.636719 C 103.515625 55.003906 102.886719 54.710938 102.492188 54.859375 C 102.492188 53.980469 101.945312 53.394531 101.785156 52.585938 C 101.316406 52.367188 101.082031 52.003906 101.242188 51.488281 C 101.945312 50.832031 101.242188 49.21875 102.886719 49.582031 C 103.515625 49.074219 104.613281 49.4375 105.242188 48.558594 C 106.886719 47.679688 109.085938 47.679688 110.34375 46.070312 C 110.890625 46.144531 111.519531 45.628906 112.070312 46.070312 C 112.226562 47.023438 113.714844 46.652344 113.714844 47.535156 "/>
<path style=" stroke:none;fill-rule:nonzero;fill:rgb(100%,100%,100%);fill-opacity:1;" d="M 125.867188 27.675781 L 123.695312 21.449219 L 121.554688 27.675781 L 114.535156 27.675781 L 120.214844 31.523438 L 118.042969 37.75 L 123.695312 33.898438 L 129.375 37.75 L 127.207031 31.523438 L 132.882812 27.675781 Z M 125.867188 27.675781 "/>
<path style=" stroke:none;fill-rule:nonzero;fill:rgb(100%,100%,100%);fill-opacity:1;" d="M 147.9375 31.300781 L 145.769531 25.101562 L 143.625 31.300781 L 136.605469 31.300781 L 142.285156 35.148438 L 140.117188 41.375 L 145.769531 37.523438 L 151.445312 41.375 L 149.277344 35.148438 L 154.957031 31.300781 Z M 147.9375 31.300781 "/>
<path style=" stroke:none;fill-rule:nonzero;fill:rgb(100%,100%,100%);fill-opacity:1;" d="M 168.992188 38.449219 L 166.847656 32.25 L 164.679688 38.449219 L 157.660156 38.449219 L 163.339844 42.300781 L 161.167969 48.523438 L 166.847656 44.675781 L 172.5 48.523438 L 170.332031 42.300781 L 176.007812 38.449219 Z M 168.992188 38.449219 "/>
<path style=" stroke:none;fill-rule:nonzero;fill:rgb(100%,100%,100%);fill-opacity:1;" d="M 103.445312 27.675781 L 101.304688 21.449219 L 99.132812 27.675781 L 92.117188 27.675781 L 97.792969 31.523438 L 95.625 37.75 L 101.304688 33.898438 L 106.957031 37.75 L 104.785156 31.523438 L 110.464844 27.675781 Z M 103.445312 27.675781 "/>
<path style=" stroke:none;fill-rule:nonzero;fill:rgb(100%,100%,100%);fill-opacity:1;" d="M 81.375 31.300781 L 79.230469 25.101562 L 77.0625 31.300781 L 70.042969 31.300781 L 75.722656 35.148438 L 73.554688 41.375 L 79.230469 37.523438 L 84.882812 41.375 L 82.714844 35.148438 L 88.394531 31.300781 Z M 81.375 31.300781 "/>
<path style=" stroke:none;fill-rule:nonzero;fill:rgb(100%,100%,100%);fill-opacity:1;" d="M 60.320312 38.449219 L 58.152344 32.25 L 56.007812 38.449219 L 48.992188 38.449219 L 54.667969 42.300781 L 52.5 48.523438 L 58.152344 44.675781 L 63.832031 48.523438 L 61.660156 42.300781 L 67.339844 38.449219 Z M 60.320312 38.449219 "/>
</g>
</svg>
